<svg width="384" height="102" viewBox="0 0 384 102" fill="none" xmlns="http://www.w3.org/2000/svg">
<path d="M138.184 40.88V47.696H149.176V54.032H138.184V61.424H150.616V68H129.976V34.304H150.616V40.88H138.184ZM168.473 60.32L174.281 41.216H183.017L173.513 68H163.385L153.881 41.216H162.665L168.473 60.32ZM199.144 68.384C196.52 68.384 194.152 67.824 192.04 66.704C189.96 65.584 188.312 63.984 187.096 61.904C185.912 59.824 185.32 57.392 185.32 54.608C185.32 51.856 185.928 49.44 187.144 47.36C188.36 45.248 190.024 43.632 192.136 42.512C194.248 41.392 196.616 40.832 199.24 40.832C201.864 40.832 204.232 41.392 206.344 42.512C208.456 43.632 210.12 45.248 211.336 47.36C212.552 49.44 213.16 51.856 213.16 54.608C213.16 57.36 212.536 59.792 211.288 61.904C210.072 63.984 208.392 65.584 206.248 66.704C204.136 67.824 201.768 68.384 199.144 68.384ZM199.144 61.28C200.712 61.28 202.04 60.704 203.128 59.552C204.248 58.4 204.808 56.752 204.808 54.608C204.808 52.464 204.264 50.816 203.176 49.664C202.12 48.512 200.808 47.936 199.24 47.936C197.64 47.936 196.312 48.512 195.256 49.664C194.2 50.784 193.672 52.432 193.672 54.608C193.672 56.752 194.184 58.4 195.208 59.552C196.264 60.704 197.576 61.28 199.144 61.28ZM226.202 32.48V68H217.994V32.48H226.202ZM259.078 41.216V68H250.87V64.352C250.038 65.536 248.902 66.496 247.462 67.232C246.054 67.936 244.486 68.288 242.758 68.288C240.71 68.288 238.902 67.84 237.334 66.944C235.766 66.016 234.55 64.688 233.686 62.96C232.822 61.232 232.39 59.2 232.39 56.864V41.216H240.55V55.76C240.55 57.552 241.014 58.944 241.942 59.936C242.87 60.928 244.118 61.424 245.686 61.424C247.286 61.424 248.55 60.928 249.478 59.936C250.406 58.944 250.87 57.552 250.87 55.76V41.216H259.078ZM281.294 68L276.158 60.56L271.838 68H262.958L271.79 54.32L262.718 41.216H271.934L277.07 48.608L281.39 41.216H290.27L281.294 54.704L290.51 68H281.294ZM293.625 42.848C293.753 39.424 294.873 36.784 296.985 34.928C299.097 33.072 301.961 32.144 305.577 32.144C307.977 32.144 310.025 32.56 311.721 33.392C313.449 34.224 314.745 35.36 315.609 36.8C316.505 38.24 316.953 39.856 316.953 41.648C316.953 43.76 316.425 45.488 315.369 46.832C314.313 48.144 313.081 49.04 311.673 49.52V49.712C313.497 50.32 314.937 51.328 315.993 52.736C317.049 54.144 317.577 55.952 317.577 58.16C317.577 60.144 317.113 61.904 316.185 63.44C315.289 64.944 313.961 66.128 312.201 66.992C310.473 67.856 308.409 68.288 306.009 68.288C302.169 68.288 299.097 67.344 296.793 65.456C294.521 63.568 293.321 60.72 293.193 56.912H301.161C301.193 58.32 301.593 59.44 302.361 60.272C303.129 61.072 304.249 61.472 305.721 61.472C306.969 61.472 307.929 61.12 308.601 60.416C309.305 59.68 309.657 58.72 309.657 57.536C309.657 56 309.161 54.896 308.169 54.224C307.209 53.52 305.657 53.168 303.513 53.168H301.977V46.496H303.513C305.145 46.496 306.457 46.224 307.449 45.68C308.473 45.104 308.985 44.096 308.985 42.656C308.985 41.504 308.665 40.608 308.025 39.968C307.385 39.328 306.505 39.008 305.385 39.008C304.169 39.008 303.257 39.376 302.649 40.112C302.073 40.848 301.737 41.76 301.641 42.848H293.625ZM340.207 42.416C339.951 41.232 339.503 40.352 338.863 39.776C338.223 39.168 337.311 38.864 336.127 38.864C334.303 38.864 332.991 39.664 332.191 41.264C331.391 42.832 330.975 45.328 330.943 48.752C331.647 47.632 332.655 46.752 333.967 46.112C335.311 45.472 336.783 45.152 338.383 45.152C341.519 45.152 344.031 46.144 345.919 48.128C347.839 50.112 348.799 52.88 348.799 56.432C348.799 58.768 348.319 60.816 347.359 62.576C346.431 64.336 345.055 65.712 343.231 66.704C341.439 67.696 339.311 68.192 336.847 68.192C331.919 68.192 328.495 66.656 326.575 63.584C324.655 60.48 323.695 56.032 323.695 50.24C323.695 44.16 324.703 39.648 326.719 36.704C328.767 33.728 332.031 32.24 336.511 32.24C338.911 32.24 340.927 32.72 342.559 33.68C344.223 34.608 345.471 35.84 346.303 37.376C347.167 38.912 347.679 40.592 347.839 42.416H340.207ZM336.415 51.632C335.039 51.632 333.887 52.048 332.959 52.88C332.063 53.68 331.615 54.832 331.615 56.336C331.615 57.872 332.031 59.072 332.863 59.936C333.727 60.8 334.943 61.232 336.511 61.232C337.919 61.232 339.023 60.816 339.823 59.984C340.655 59.12 341.071 57.952 341.071 56.48C341.071 54.976 340.671 53.792 339.871 52.928C339.071 52.064 337.919 51.632 336.415 51.632ZM353.922 50C353.922 44.496 354.978 40.16 357.09 36.992C359.234 33.824 362.674 32.24 367.41 32.24C372.146 32.24 375.57 33.824 377.682 36.992C379.826 40.16 380.898 44.496 380.898 50C380.898 55.568 379.826 59.936 377.682 63.104C375.57 66.272 372.146 67.856 367.41 67.856C362.674 67.856 359.234 66.272 357.09 63.104C354.978 59.936 353.922 55.568 353.922 50ZM372.834 50C372.834 46.768 372.482 44.288 371.778 42.56C371.074 40.8 369.618 39.92 367.41 39.92C365.202 39.92 363.746 40.8 363.042 42.56C362.338 44.288 361.986 46.768 361.986 50C361.986 52.176 362.114 53.984 362.37 55.424C362.626 56.832 363.138 57.984 363.906 58.88C364.706 59.744 365.874 60.176 367.41 60.176C368.946 60.176 370.098 59.744 370.866 58.88C371.666 57.984 372.194 56.832 372.45 55.424C372.706 53.984 372.834 52.176 372.834 50Z" fill="#5932EA"/>
<path d="M0 13.4422V32.4894H18.9242C12.6225 26.1467 6.31125 19.7945 0 13.4422ZM99 88.5482V69.501H80.0758C86.387 75.8533 92.6983 82.2055 99 88.5482ZM31.3468 0H11.7467C11.3945 0 11.0518 0.0191621 10.6996 0.0574864C17.582 7.06124 24.4644 14.0746 31.3373 21.0783V0H31.3468ZM87.2628 0H48.1292V49.0455H0V90.177C0 96.7017 5.25462 102 11.7467 102H50.8803V52.9545H99V11.823C99 5.29833 93.7454 0 87.2533 0H87.2628ZM67.6627 101.99H87.2628C87.7387 101.99 88.2147 101.952 88.6812 101.895C81.675 94.9004 74.6688 87.9063 67.6722 80.9121V101.99H67.6627Z" fill="#5932EA"/>
</svg>
