<svg width="39" height="39" viewBox="0 0 39 39" fill="none" xmlns="http://www.w3.org/2000/svg">
<path d="M19.1909 9.36963C18.8591 9.36963 18.522 9.38518 18.1902 9.42148C17.8635 9.45259 17.542 9.50445 17.2205 9.57186C16.9042 9.63926 16.5879 9.71704 16.282 9.81556L15.3746 10.1474L14.5294 10.5571L13.7205 11.0497L12.9582 11.62L12.2634 12.2526L11.6256 12.9475L11.0604 13.6993L10.5678 14.5082L10.153 15.3638C10.0285 15.6594 9.91446 15.9601 9.82113 16.2609C9.72261 16.5668 9.64483 16.8831 9.57742 17.1994C9.51001 17.5209 9.46334 17.8424 9.42705 18.1691C9.32334 19.1594 9.37519 20.1602 9.57742 21.135C9.70705 21.7625 9.89891 22.3795 10.153 22.9706L10.5678 23.8262L11.0604 24.6351L11.6256 25.3921L12.2582 26.087L12.953 26.7196L13.7101 27.2848L14.519 27.7774L15.3746 28.1922L16.2716 28.5241L17.2102 28.7678C18.185 28.97 19.1857 29.0167 20.1813 28.9181C20.508 28.887 20.8295 28.8352 21.151 28.7678L22.0895 28.5241L22.9866 28.1922L23.8421 27.7774L24.651 27.2848L25.4029 26.7196L26.1029 26.087L26.7355 25.3921L27.3007 24.6403L27.7933 23.8314L28.2081 22.9758L28.54 22.0788C28.6385 21.7728 28.7163 21.4565 28.7837 21.1402L28.9341 20.1706C28.9652 19.8439 28.9859 19.5069 28.9859 19.175C28.9859 18.838 28.9704 18.5061 28.9341 18.1742C28.8978 17.8476 28.8511 17.5261 28.7837 17.2046C28.7215 16.8883 28.6385 16.5772 28.54 16.2661L28.2081 15.369L27.7933 14.5134L27.3059 13.6993L26.7407 12.9475L26.1081 12.2526L25.4185 11.6097L24.6666 11.0445L23.8577 10.5519L22.9969 10.1422L22.0999 9.81038L21.1613 9.56667L20.1917 9.4163C19.8598 9.38519 19.528 9.36963 19.1909 9.36963ZM19.1909 12.7504C19.4087 12.7504 19.6317 12.7608 19.8495 12.7815L20.4873 12.8801L21.1043 13.0356L21.6954 13.2482L22.2554 13.5179L22.7843 13.8393L23.2769 14.2075L23.7332 14.6171L24.1481 15.0734L24.511 15.566L24.8325 16.0949L25.1022 16.655C25.1851 16.8468 25.2525 17.0438 25.3148 17.2461C25.377 17.4483 25.4288 17.6505 25.4703 17.8631C25.5118 18.0757 25.5429 18.2831 25.5688 18.5009L25.5999 19.1594C25.5999 19.3824 25.5896 19.6002 25.5688 19.818C25.5481 20.0358 25.517 20.2483 25.4703 20.4558C25.4288 20.6632 25.377 20.8706 25.3148 21.0728L25.1022 21.6639L24.8325 22.2239L24.5162 22.758L24.1532 23.2506L23.7384 23.7069L23.2821 24.1166L22.7895 24.4795L22.2606 24.801L21.7006 25.0707L21.1095 25.2833L20.4924 25.4388L19.8495 25.5373C19.6317 25.5581 19.4087 25.5685 19.1909 25.5685C18.9732 25.5685 18.7502 25.5581 18.5324 25.5373L17.8946 25.4388C17.6872 25.3973 17.4798 25.3455 17.2776 25.2833L16.6864 25.0707L16.1264 24.801L15.5975 24.4795L15.1049 24.1166L14.6486 23.7069L14.2338 23.2506L13.8708 22.758L13.5493 22.2291L13.2745 21.6691L13.0619 21.078L12.9064 20.4609L12.8079 19.8232C12.7871 19.6054 12.7767 19.3824 12.7767 19.1646C12.7767 18.9468 12.7871 18.7239 12.8079 18.5061C12.8286 18.2883 12.8597 18.0757 12.9064 17.8683C12.9479 17.6609 12.9997 17.4535 13.0671 17.2513L13.2797 16.6601L13.5493 16.1001L13.8708 15.5712L14.2338 15.0786L14.6434 14.6223L15.0997 14.2075L15.5923 13.8445L16.1161 13.5282L16.6761 13.2586C16.8679 13.1756 17.065 13.1082 17.2672 13.046L17.8842 12.8904C18.0917 12.849 18.3094 12.8178 18.522 12.7919C18.7346 12.7712 18.9628 12.7608 19.1806 12.7608L19.1909 12.7504Z" fill="#5932EA"/>
<path d="M29.3907 6.58504C29.3129 6.58504 29.2351 6.58504 29.1574 6.59541C29.0796 6.60578 29.0018 6.61615 28.9292 6.63171C28.8514 6.64727 28.7788 6.66801 28.7011 6.68875C28.6285 6.70949 28.5559 6.7406 28.4833 6.77171C28.4107 6.80282 28.3433 6.83912 28.2707 6.87542C28.2033 6.91172 28.1359 6.9532 28.0736 6.99468C28.0114 7.03616 27.9492 7.08801 27.887 7.13987C27.8299 7.19172 27.7677 7.24357 27.7158 7.30061C27.664 7.35765 27.6121 7.41469 27.5603 7.47691C27.5136 7.53913 27.467 7.59617 27.4255 7.66877C27.384 7.73617 27.3425 7.80358 27.3062 7.87099C27.2699 7.9384 27.2388 8.01099 27.2129 8.08359C27.1818 8.15618 27.161 8.22878 27.1403 8.30656C27.1195 8.37915 27.104 8.45693 27.0884 8.53471C27.0729 8.61249 27.0677 8.69027 27.0625 8.76805C27.0625 8.82508 27.0625 8.87694 27.0625 8.93397C27.0625 9.08953 27.0781 9.25028 27.1092 9.40065C27.1247 9.47843 27.1455 9.55102 27.1662 9.6288C27.1869 9.7014 27.2181 9.77918 27.2492 9.84658C27.2803 9.91918 27.3114 9.99177 27.3529 10.0592C27.3892 10.1266 27.4307 10.194 27.4721 10.2614C27.5188 10.3288 27.5655 10.3859 27.6121 10.4481C27.664 10.5103 27.7158 10.5673 27.7729 10.6192C27.8299 10.6762 27.887 10.7281 27.9492 10.7747C28.0114 10.8214 28.0736 10.8681 28.141 10.9096C28.2084 10.951 28.2759 10.9925 28.3433 11.0288C28.4159 11.0651 28.4833 11.0962 28.5559 11.1222C28.6285 11.1481 28.7011 11.174 28.7788 11.1948C28.8566 11.2155 28.9292 11.2311 29.007 11.2466C29.0848 11.2622 29.1625 11.2674 29.2403 11.2777C29.2922 11.2777 29.3492 11.2829 29.4062 11.2829C29.484 11.2829 29.5618 11.2829 29.6396 11.2725C29.7174 11.2622 29.7951 11.2518 29.8729 11.2362C29.9507 11.2207 30.0233 11.1999 30.1011 11.1792C30.1737 11.1585 30.2463 11.1273 30.3189 11.0962C30.464 11.034 30.5989 10.9614 30.7285 10.8733C30.7907 10.8266 30.8478 10.7799 30.9152 10.7281C30.9774 10.6762 31.0292 10.6244 31.0863 10.5673C31.1381 10.5103 31.19 10.4533 31.2418 10.391C31.3404 10.2666 31.4233 10.137 31.4907 9.99696C31.527 9.92955 31.5581 9.85695 31.5841 9.78436C31.6152 9.71177 31.6359 9.63917 31.6567 9.56139C31.6774 9.48361 31.693 9.41102 31.7085 9.33324C31.7241 9.25546 31.7293 9.17768 31.7344 9.0999C31.7344 9.04287 31.7396 8.99101 31.7396 8.93397C31.7396 8.8562 31.7396 8.77842 31.7293 8.70064C31.7241 8.62286 31.7085 8.54508 31.693 8.4673C31.6774 8.38433 31.6567 8.31174 31.6359 8.23915C31.5685 8.01618 31.4648 7.80358 31.33 7.60654C31.2885 7.53913 31.2367 7.47691 31.19 7.41987C31.1381 7.36283 31.0863 7.30061 31.0292 7.24876C30.9722 7.1969 30.9152 7.13987 30.8529 7.0932C30.7907 7.04653 30.7337 6.99986 30.6611 6.95838C30.5937 6.9169 30.5263 6.87542 30.4589 6.83912C30.3915 6.80282 30.3189 6.77171 30.2463 6.74579C30.1737 6.71467 30.1011 6.69393 30.0233 6.67319C29.9455 6.65245 29.8729 6.63689 29.7951 6.62134C29.7174 6.60578 29.6396 6.6006 29.5618 6.59541C29.5048 6.58504 29.4477 6.57986 29.3907 6.58504Z" fill="#5932EA"/>
<path d="M17.3344 0C16.2662 0 15.3173 -6.33587e-07 14.4618 0.0155552L12.1647 0.0777792C11.4854 0.108891 10.8839 0.145187 10.3498 0.19704C10.0802 0.222967 9.82611 0.248893 9.58759 0.280005C9.34906 0.311117 9.13128 0.342228 8.90313 0.383711C8.67498 0.420008 8.48312 0.46149 8.2809 0.502972C8.08385 0.54964 7.89718 0.591122 7.7157 0.642975C7.53421 0.694828 7.3631 0.746681 7.1868 0.803719C7.0105 0.860757 6.84976 0.92298 6.68383 0.990389C6.35197 1.12002 6.03048 1.26521 5.69863 1.43114C5.44455 1.55558 5.21639 1.68522 4.98306 1.82003C4.76009 1.95485 4.54749 2.10004 4.34008 2.2556C4.12748 2.41634 3.92007 2.58746 3.72303 2.76894C3.52599 2.95043 3.30302 3.16302 3.08524 3.39636C2.81042 3.68674 2.5719 3.95118 2.3593 4.22082C2.25041 4.35045 2.15189 4.48527 2.05856 4.6149C1.96522 4.74453 1.87707 4.87935 1.79411 5.01417C1.71114 5.14899 1.63336 5.2838 1.5504 5.42381C1.47262 5.56381 1.40003 5.709 1.33262 5.85937C1.19261 6.16012 1.06298 6.4816 0.933351 6.84457C0.83483 7.10902 0.751866 7.38384 0.674087 7.65348C0.596307 7.9283 0.528899 8.22386 0.466675 8.54016C0.404452 8.85646 0.347414 9.19869 0.305932 9.57203C0.254079 9.98685 0.212597 10.3965 0.18667 10.8113C0.150373 11.2676 0.124447 11.7654 0.0985208 12.3254L0.0414824 14.1817L0.0103704 16.4425L0 19.1752L0.0259264 23.1471L0.103706 26.1546L0.165929 27.3316L0.243708 28.3065C0.269634 28.5709 0.295562 28.8302 0.331859 29.0894C0.36297 29.3228 0.399267 29.525 0.440749 29.6961C0.518528 30.0591 0.611863 30.4065 0.715569 30.7591C0.819275 31.1117 0.933351 31.4228 1.06298 31.7495C1.19261 32.071 1.33262 32.3769 1.48299 32.6725C1.63336 32.968 1.79929 33.2532 1.97559 33.5177C2.15189 33.7873 2.33856 34.0518 2.54597 34.3006C2.7482 34.5495 2.9608 34.7932 3.18895 35.0162C3.4171 35.2444 3.65562 35.4622 3.90452 35.6696C4.1586 35.877 4.42305 36.074 4.69787 36.2555C4.95194 36.4266 5.20602 36.5822 5.4601 36.7274C5.71418 36.8725 5.96826 36.997 6.23271 37.1163C6.49716 37.2355 6.76679 37.3392 7.0468 37.4377C7.3268 37.5311 7.62236 37.6192 7.93348 37.6918C8.2446 37.7644 8.57127 37.8318 8.91869 37.8889C9.2661 37.9459 9.64462 37.9978 10.0335 38.0392C10.4224 38.0807 10.8528 38.117 11.3091 38.1481C11.7654 38.1792 12.2528 38.2 12.7713 38.2207C13.5803 38.2518 14.7988 38.2674 16.2092 38.2726L20.7722 38.2622L25.0916 38.2L26.7353 38.1533L27.8035 38.1015C28.0316 38.0807 28.2598 38.06 28.4776 38.034C28.6954 38.0081 28.9079 37.9822 29.1154 37.9459C29.3228 37.9096 29.525 37.8733 29.7272 37.8318C29.9243 37.7903 30.1213 37.7437 30.3183 37.6918C30.5154 37.64 30.7021 37.5881 30.8939 37.5259C31.0858 37.4689 31.2724 37.4066 31.4539 37.334C31.6406 37.2614 31.8273 37.1888 32.0087 37.1111C32.1902 37.0333 32.3769 36.9503 32.5636 36.8622C32.8488 36.7274 33.0769 36.6133 33.2791 36.4992C33.471 36.3955 33.6525 36.2814 33.8236 36.1518C34.0103 36.0118 34.1917 35.8614 34.3629 35.7007C34.5599 35.5192 34.7829 35.3014 35.0577 35.0266C35.3014 34.7829 35.5036 34.5755 35.6799 34.3836C35.8562 34.1918 36.0066 34.0206 36.1362 33.8547C36.2607 33.6992 36.3748 33.5332 36.4836 33.3621C36.5873 33.1962 36.6807 33.0251 36.7792 32.8332C36.9244 32.548 37.054 32.2784 37.1733 32.0243C37.2925 31.765 37.3911 31.5265 37.4844 31.2724C37.5777 31.0184 37.6555 30.7591 37.7281 30.4998C37.8007 30.2354 37.8577 29.945 37.9096 29.6339C37.9614 29.3228 38.0029 28.9857 38.0444 28.6072C38.0807 28.2287 38.117 27.8087 38.1429 27.342L38.2155 25.7709L38.2778 23.8108L38.3244 21.6278L38.34 19.3411L38.2985 14.8506L38.2466 12.8388L38.174 11.1121L38.0807 9.76389C38.0444 9.39055 38.0081 9.09499 37.9718 8.89276C37.9303 8.67498 37.8837 8.45201 37.8266 8.23423C37.7748 8.02163 37.7177 7.80904 37.6555 7.60162C37.5933 7.39421 37.5363 7.19199 37.4585 6.99495C37.3807 6.7979 37.3133 6.60086 37.2355 6.41419C37.1577 6.22234 37.0748 6.04085 36.9866 5.85937C36.8985 5.67788 36.8051 5.4964 36.7118 5.32528C36.6185 5.15417 36.5148 4.98306 36.411 4.81713C36.3073 4.6512 36.1985 4.49045 36.0844 4.3349C35.9703 4.17415 35.8562 4.02896 35.7318 3.87859C35.6073 3.72822 35.4829 3.58822 35.3533 3.44821C35.2236 3.30821 35.0888 3.17339 34.9488 3.04376C34.8088 2.91413 34.6636 2.7845 34.5184 2.66524C34.3732 2.54079 34.2177 2.42153 34.0621 2.31264C33.9066 2.20374 33.7406 2.08967 33.5799 1.98078C33.414 1.87707 33.2428 1.77337 33.0717 1.67485C32.9006 1.57633 32.7191 1.48299 32.5376 1.39484C32.2369 1.24965 31.9621 1.12002 31.6924 1.00594C31.4228 0.891868 31.1532 0.793348 30.8732 0.700013C30.5828 0.606678 30.2872 0.534084 29.9865 0.47186C29.665 0.409637 29.3176 0.352599 28.9235 0.305931C28.5294 0.264449 28.0887 0.222967 27.5857 0.18667C27.0827 0.150373 26.5175 0.134817 25.8694 0.114076L23.6708 0.067408L20.8915 0.0362968L17.3292 0.0155552L17.3344 0ZM19.1804 3.3808L24.3138 3.41192L26.2479 3.44821C26.782 3.46377 27.1864 3.47932 27.4301 3.50007C27.7413 3.52599 28.0368 3.5571 28.322 3.59859C28.6072 3.63488 28.8613 3.68155 29.1309 3.73859C29.4005 3.79563 29.6339 3.85266 29.8724 3.92526C30.1057 3.99785 30.3339 4.07045 30.5465 4.1586C30.7591 4.24156 30.9665 4.3349 31.1687 4.44379C31.3658 4.54749 31.5576 4.66157 31.7443 4.78083C31.9258 4.90009 32.1073 5.03491 32.2784 5.17491C32.4495 5.3201 32.6206 5.47047 32.7814 5.63122C32.9473 5.79715 33.108 5.97345 33.2584 6.15493C33.4036 6.33642 33.5384 6.52309 33.6628 6.72013C33.7873 6.91717 33.9014 7.12458 33.9999 7.33717C34.1036 7.56014 34.1969 7.78829 34.2747 8.02682C34.3577 8.27052 34.4303 8.52979 34.4925 8.80461C34.5547 9.07943 34.6118 9.39055 34.6636 9.68611C34.7155 9.98167 34.7518 10.3343 34.7881 10.6921C34.8244 11.0498 34.8555 11.4335 34.8762 11.8432C34.8969 12.1699 34.9125 12.6054 34.9281 13.1188L34.9644 14.8662L34.9903 19.1441L34.9644 23.4167L34.9281 25.159L34.8762 26.4242C34.8399 27.0153 34.8036 27.5131 34.7569 27.9487C34.7362 28.1665 34.7103 28.3635 34.6843 28.5554C34.6584 28.742 34.6273 28.9131 34.5962 29.0894C34.5599 29.2657 34.5236 29.4109 34.4873 29.5717C34.4458 29.7324 34.3992 29.8724 34.3525 30.0176C34.3006 30.1628 34.2436 30.3132 34.1866 30.4584C34.1295 30.6035 34.0569 30.7643 33.9895 30.9147C33.9221 31.065 33.8599 31.1791 33.7925 31.3087C33.7251 31.4332 33.6525 31.5576 33.5747 31.6821C33.4969 31.8013 33.4191 31.9258 33.331 32.0295C33.2428 32.1384 33.1599 32.2525 33.0717 32.3562C32.9784 32.4599 32.8851 32.5636 32.7865 32.6621C32.688 32.7606 32.5843 32.8591 32.4806 32.9473C32.3769 33.0354 32.268 33.1288 32.1539 33.2117C32.0399 33.2947 31.9206 33.3777 31.8013 33.4554C31.6821 33.528 31.5576 33.611 31.428 33.6784C31.2984 33.7458 31.1635 33.8184 31.0287 33.8858C30.8939 33.9532 30.7487 34.0155 30.6035 34.0725C30.4583 34.1295 30.308 34.1918 30.1576 34.2384C29.8517 34.3421 29.5302 34.4355 29.188 34.5132C28.8354 34.5962 28.4724 34.6636 28.1146 34.7155C27.9746 34.7362 27.6583 34.757 27.202 34.7725L25.4597 34.8192L20.5233 34.8866L15.3588 34.8918L13.3314 34.871L12.0143 34.8295L11.0447 34.7621C10.7439 34.7362 10.4639 34.7103 10.1994 34.674C9.935 34.6429 9.69129 34.6066 9.46314 34.5651C9.23499 34.5236 9.02758 34.4821 8.81498 34.4303C8.61794 34.3836 8.42608 34.3266 8.23423 34.2644C8.04237 34.2021 7.87126 34.1347 7.70014 34.0621C7.52903 33.9895 7.3631 33.9066 7.19717 33.8184C7.03124 33.7303 6.86013 33.6317 6.69938 33.5229C6.58012 33.4451 6.45568 33.3621 6.33641 33.2791C6.21715 33.1962 6.10826 33.108 5.99937 33.0199C5.89048 32.9317 5.78677 32.8384 5.68825 32.7451C5.58973 32.6517 5.49121 32.5532 5.40306 32.4495C5.31491 32.3458 5.22158 32.2473 5.13861 32.1384C5.05565 32.0295 4.97269 31.9206 4.89491 31.8065C4.81713 31.6924 4.74453 31.5732 4.67194 31.4539C4.59935 31.3347 4.53712 31.2102 4.4749 31.0754C4.41267 30.9406 4.35564 30.8109 4.29341 30.6709C4.23119 30.5309 4.18452 30.3909 4.13267 30.2406C4.02896 29.9295 3.94081 29.6131 3.86822 29.2968C3.79044 28.9598 3.72822 28.6072 3.67118 28.2235C3.61414 27.8398 3.57266 27.4405 3.53636 27.0153C3.51044 26.699 3.48969 26.2116 3.47414 25.5894L3.43784 23.3856L3.4534 17.7751L3.54673 12.4136L3.61933 10.5261L3.66081 9.8987C3.67118 9.77944 3.68674 9.655 3.70748 9.53573C3.75933 9.29203 3.81118 9.06387 3.86303 8.85128C3.91489 8.63868 3.96674 8.45201 4.02378 8.25497C4.08082 8.05793 4.14304 7.892 4.20526 7.73126C4.26749 7.57051 4.3349 7.41495 4.41268 7.2594C4.49045 7.10384 4.56823 6.96902 4.65638 6.82902C4.74453 6.68901 4.83787 6.5542 4.94157 6.41938C5.04528 6.28456 5.15417 6.14974 5.27343 6.01493C5.39269 5.88011 5.52233 5.74529 5.66233 5.60529C5.82307 5.44455 5.99419 5.28899 6.17049 5.13343C6.35197 4.97787 6.52309 4.84824 6.68901 4.73416C6.86531 4.6149 7.0468 4.50082 7.23865 4.4023C7.43051 4.2986 7.62755 4.21045 7.82978 4.12748C8.03719 4.04452 8.25497 3.97193 8.48312 3.9097C8.72683 3.84229 8.96535 3.79044 9.21943 3.7334C9.46832 3.68155 9.75352 3.64007 10.0491 3.59859C10.3446 3.56229 10.6558 3.52599 10.9928 3.50007C11.2261 3.47932 11.6306 3.46377 12.1595 3.44821L14.0884 3.41192L19.1804 3.3808Z" fill="#5932EA"/>
</svg>
