<svg width="99" height="102" viewBox="0 0 99 102" fill="none" xmlns="http://www.w3.org/2000/svg">
<path d="M0 13.4422V32.4894H18.9242C12.6225 26.1467 6.31125 19.7945 0 13.4422ZM99 88.5482V69.501H80.0758C86.387 75.8533 92.6983 82.2055 99 88.5482ZM31.3468 0H11.7467C11.3945 0 11.0518 0.0191621 10.6996 0.0574864C17.582 7.06124 24.4644 14.0746 31.3373 21.0783V0H31.3468ZM87.2628 0H48.1292V49.0455H0V90.177C0 96.7017 5.25462 102 11.7467 102H50.8803V52.9545H99V11.823C99 5.29833 93.7454 0 87.2533 0H87.2628ZM67.6627 101.99H87.2628C87.7387 101.99 88.2147 101.952 88.6812 101.895C81.675 94.9004 74.6688 87.9063 67.6722 80.9121V101.99H67.6627Z" fill="#5932EA"/>
</svg>
